<svg xmlns="http://www.w3.org/2000/svg" viewBox="0 0 64 64" width="64" height="64">
  <defs>
    <linearGradient id="g1" x1="0" x2="1">
      <stop offset="0" stop-color="#4B8BBE" />
      <stop offset="1" stop-color="#306998" />
    </linearGradient>
    <linearGradient id="g2" x1="0" x2="1">
      <stop offset="0" stop-color="#FFD43B" />
      <stop offset="1" stop-color="#FFB86B" />
    </linearGradient>
  </defs>
  <g transform="translate(4,6)">
    <path d="M24 0c-6 0-8 3-8 7v5h14c3 0 6 2 6 5v6c0 3-3 5-6 5H8c-4 0-8 3-8 7v5c0 4 4 7 8 7h8c6 0 8-3 8-7v-5h-6c-3 0-6-2-6-5v-6c0-3 3-5 6-5h16V7c0-6-4-7-10-7z" fill="url(#g1)" opacity="0.95" />
    <path d="M40 12c6 0 8 3 8 7v5H34c-3 0-6 2-6 5v6c0 3 3 5 6 5h16c4 0 8 3 8 7v5c0 4-4 7-8 7H40c-6 0-8-3-8-7v-5h6c3 0 6-2 6-5v-6c0-3-3-5-6-5H18V19c0-6 4-7 10-7z" transform="translate(-2,-2)" fill="url(#g2)" opacity="0.95" />
  </g>
</svg>
